<svg width="100%" role="img" aria-labelledby="interview-diagram-2-title interview-diagram-2-desc" viewBox="0 0 940 360" xmlns="http://www.w3.org/2000/svg">
  <title id="interview-diagram-2-title">Requirements-to-architecture map</title>
  <desc id="interview-diagram-2-desc">Requirement categories map to architecture decisions: data contracts, rendering, state, interaction, security, and observability.</desc>
  <rect x="38" y="48" width="864" height="260" rx="14" fill="#fffdf8" stroke="#ddd3c4" />
  <g font-size="13.5" font-weight="700" fill="#111211">
    <rect x="78" y="92" width="170" height="46" rx="9" fill="#efe8dc" stroke="#8a4f2a" />
    <text x="163" y="121" text-anchor="middle">freshness and scale</text>
    <path d="M252 115 H352" stroke="#4f6656" stroke-width="3" marker-end="url(#interview-arrow2)" />
    <rect x="362" y="92" width="190" height="46" rx="9" fill="#edf1ec" stroke="#4f6656" />
    <text x="457" y="121" text-anchor="middle">API and cache design</text>
    <rect x="78" y="158" width="170" height="46" rx="9" fill="#efe8dc" stroke="#8a4f2a" />
    <text x="163" y="187" text-anchor="middle">first useful content</text>
    <path d="M252 181 H352" stroke="#4f6656" stroke-width="3" marker-end="url(#interview-arrow2)" />
    <rect x="362" y="158" width="190" height="46" rx="9" fill="#edf1ec" stroke="#4f6656" />
    <text x="457" y="187" text-anchor="middle">rendering strategy</text>
    <rect x="78" y="224" width="170" height="46" rx="9" fill="#efe8dc" stroke="#8a4f2a" />
    <text x="163" y="253" text-anchor="middle">roles and risk</text>
    <path d="M252 247 H352" stroke="#4f6656" stroke-width="3" marker-end="url(#interview-arrow2)" />
    <rect x="362" y="224" width="190" height="46" rx="9" fill="#edf1ec" stroke="#4f6656" />
    <text x="457" y="253" text-anchor="middle">security boundaries</text>
    <rect x="628" y="92" width="190" height="46" rx="9" fill="#f7f1e8" stroke="#8a4f2a" />
    <text x="723" y="121" text-anchor="middle">state ownership</text>
    <rect x="628" y="158" width="190" height="46" rx="9" fill="#f7f1e8" stroke="#8a4f2a" />
    <text x="723" y="187" text-anchor="middle">failure recovery</text>
    <rect x="628" y="224" width="190" height="46" rx="9" fill="#f7f1e8" stroke="#8a4f2a" />
    <text x="723" y="253" text-anchor="middle">observability</text>
  </g>
  <defs>
    <marker id="interview-arrow2" markerWidth="10" markerHeight="10" refX="8" refY="3" orient="auto">
      <path d="M0,0 L0,6 L9,3 z" fill="#4f6656" />
    </marker>
  </defs>
</svg>